<?xml version="1.0" encoding="UTF-8" standalone="no"?>
<!-- Generator: Adobe Illustrator 20.0.0, SVG Export Plug-In . SVG Version: 6.00 Build 0)  -->

<svg
   xmlns:dc="http://purl.org/dc/elements/1.1/"
   xmlns:cc="http://creativecommons.org/ns#"
   xmlns:rdf="http://www.w3.org/1999/02/22-rdf-syntax-ns#"
   xmlns:svg="http://www.w3.org/2000/svg"
   xmlns="http://www.w3.org/2000/svg"
   xmlns:sodipodi="http://sodipodi.sourceforge.net/DTD/sodipodi-0.dtd"
   xmlns:inkscape="http://www.inkscape.org/namespaces/inkscape"
   version="1.1"
   id="White"
   x="0px"
   y="0px"
   viewBox="0 0 400 400"
   style="enable-background:new 0 0 400 400;"
   xml:space="preserve"
   sodipodi:docname="twitter.svg"
   inkscape:version="0.92.3 (2405546, 2018-03-11)"><metadata
   id="metadata11"><rdf:RDF><cc:Work
       rdf:about=""><dc:format>image/svg+xml</dc:format><dc:type
         rdf:resource="http://purl.org/dc/dcmitype/StillImage" /></cc:Work></rdf:RDF></metadata><defs
   id="defs9" /><sodipodi:namedview
   pagecolor="#ffffff"
   bordercolor="#666666"
   borderopacity="1"
   objecttolerance="10"
   gridtolerance="10"
   guidetolerance="10"
   inkscape:pageopacity="0"
   inkscape:pageshadow="2"
   inkscape:window-width="2087"
   inkscape:window-height="1171"
   id="namedview7"
   showgrid="false"
   inkscape:zoom="0.59"
   inkscape:cx="686.42268"
   inkscape:cy="313.55932"
   inkscape:window-x="0"
   inkscape:window-y="0"
   inkscape:window-maximized="0"
   inkscape:current-layer="White" />
<style
   type="text/css"
   id="style2">
	.st0{fill:#FFFFFF;}
</style>
<path
   class="st0"
   d="M350,400H50c-27.6,0-50-22.4-50-50V50C0,22.4,22.4,0,50,0h300c27.6,0,50,22.4,50,50v300  C400,377.6,377.6,400,350,400z M153.6,301.6c94.3,0,145.9-78.2,145.9-145.9c0-2.2,0-4.4-0.1-6.6c10-7.2,18.7-16.3,25.6-26.6  c-9.2,4.1-19.1,6.8-29.5,8.1c10.6-6.3,18.7-16.4,22.6-28.4c-9.9,5.9-20.9,10.1-32.6,12.4c-9.4-10-22.7-16.2-37.4-16.2  c-28.3,0-51.3,23-51.3,51.3c0,4,0.5,7.9,1.3,11.7c-42.6-2.1-80.4-22.6-105.7-53.6c-4.4,7.6-6.9,16.4-6.9,25.8  c0,17.8,9.1,33.5,22.8,42.7c-8.4-0.3-16.3-2.6-23.2-6.4c0,0.2,0,0.4,0,0.7c0,24.8,17.7,45.6,41.1,50.3c-4.3,1.2-8.8,1.8-13.5,1.8  c-3.3,0-6.5-0.3-9.6-0.9c6.5,20.4,25.5,35.2,47.9,35.6c-17.6,13.8-39.7,22-63.7,22c-4.1,0-8.2-0.2-12.2-0.7  C97.7,293.1,124.7,301.6,153.6,301.6"
   id="path4"
   style="fill:none" />
<path
   style="opacity:1;fill:#ffffff;fill-opacity:1;stroke:#000000;stroke-width:0.02264856;stroke-linejoin:round;stroke-miterlimit:4;stroke-dasharray:none;paint-order:markers fill stroke"
   d="m 140.00518,300.73744 c -16.02343,-1.66781 -31.84736,-5.85737 -45.842093,-12.13718 -5.348595,-2.40006 -15.672421,-7.87399 -16.729923,-8.87059 -0.310645,-0.29275 2.038413,-0.36195 5.393187,-0.15888 15.86047,0.96009 35.241659,-3.18832 50.390459,-10.78573 6.60979,-3.31494 17.57474,-10.26326 17.57474,-11.13685 0,-0.26121 -1.8202,-0.6455 -4.04489,-0.85396 -14.60677,-1.36874 -28.77741,-9.87616 -36.97695,-22.1993 -1.78421,-2.6815 -3.50778,-5.54598 -3.83016,-6.3655 -0.32238,-0.81953 -1.00398,-2.46837 -1.51466,-3.66409 l -0.92852,-2.17405 6.41935,0.30013 c 5.78064,0.27027 14.35282,-0.50791 15.86069,-1.43982 0.31681,-0.19581 -1.67789,-1.08563 -4.43266,-1.97741 -14.00245,-4.53287 -24.481035,-13.59372 -30.7502,-26.58977 -3.062755,-6.34913 -4.494225,-11.45539 -4.970356,-17.72996 -0.278951,-3.6761 -0.191473,-4.38385 0.50585,-4.09271 6.747601,2.81722 8.9422,3.59642 12.100636,4.29637 5.71172,1.26577 10.01562,1.68082 10.01562,0.96586 0,-0.34093 -0.24234,-0.61988 -0.53854,-0.61988 -1.06033,0 -9.770597,-8.64524 -12.344736,-12.25257 -3.795166,-5.31845 -6.658106,-11.67863 -8.136155,-18.07492 -1.094062,-4.73457 -1.246993,-6.81388 -0.996588,-13.54993 0.319457,-8.59356 1.124115,-12.33999 4.061197,-18.90865 l 1.863264,-4.1671 9.693698,9.7107 c 10.54923,10.56775 18.13645,16.56339 29.43497,23.26038 18.98447,11.2527 39.44297,17.73946 62.82627,19.92029 l 4.0667,0.37927 -0.47125,-4.09492 c -1.21371,-10.54667 0.0652,-20.33319 3.7458,-28.66389 5.07574,-11.48843 15.54097,-21.64053 27.36881,-26.5499 17.62314,-7.314819 39.34682,-3.56409 53.09882,9.16784 l 3.51656,3.25571 4.73769,-1.13584 c 6.91595,-1.65807 14.71372,-4.53017 21.41216,-7.88659 6.78507,-3.39982 6.73717,-3.47614 2.71516,4.32593 -3.64148,7.06388 -9.68437,13.7997 -17.30745,19.29205 -1.47127,1.06003 -1.45467,1.06548 2.11253,0.69344 4.65065,-0.48504 15.96089,-3.39546 20.73702,-5.33617 2.05373,-0.83451 3.80648,-1.44486 3.895,-1.35634 0.0885,0.0885 -1.35868,2.16937 -3.21601,4.62412 -4.09485,5.41199 -12.96725,14.42186 -17.67075,17.94454 l -3.44564,2.58061 v 4.63492 c 0,52.3641 -27.7485,102.42641 -71.07976,128.23816 -15.22657,9.07024 -32.82217,15.24858 -51.46544,18.07107 -8.92005,1.35045 -28.79662,1.94972 -36.85345,1.11111 z"
   id="path824"
   inkscape:connector-curvature="0" /></svg>